<svg width="1338" height="106" viewBox="0 0 1338 106" fill="none" xmlns="http://www.w3.org/2000/svg">
<path d="M105.5 104.965C63.6385 104.328 0 93.5831 0 93.5831L1.04904e-05 18.9696L0 0H1338V77.1429C1338 77.1429 1303.68 83.6 1280.5 93.5831C1246.34 108.292 1231.56 106.571 1195.5 104.965C1150.38 102.955 1140.58 90.4293 1095.5 93.5831C1065.67 95.67 1037.79 107.891 1008 104.965C971.642 101.393 961.461 92.7418 925 93.5831C891.995 94.3447 869.056 77.832 836.5 84.7307C800.332 92.3946 773.074 81.3409 736.5 84.7307C695.799 88.5029 673.671 109.222 633 104.965C599.341 101.442 584.912 99.8163 551.5 93.5831C459.106 76.3465 401.697 65.8801 309.5 84.7307C266.998 93.4206 244.491 81.7812 201.5 84.7307C162.779 87.3872 144.275 105.555 105.5 104.965Z" fill="#1E698D"/>
</svg>
