<svg width="1340" height="311" viewBox="0 0 1340 311" fill="none" xmlns="http://www.w3.org/2000/svg">
<g id="Vector 2">
<path d="M226.416 257.022C125.315 241.987 0 50.64 0 50.64V0H1340V148.098C1340 148.098 1328 143.321 1318.01 136.632C1293.31 120.107 1282.3 153.39 1270.2 189.955C1259.3 222.907 1247.52 258.526 1224.04 262.755C1179.07 270.855 1137.14 256.38 1094.33 241.6C1070.9 233.514 1047.22 225.336 1022.62 220.714C955.715 208.142 905.96 236.089 856.049 264.125C806.93 291.714 757.659 319.39 691.742 308.617C649.22 301.668 617.869 286.984 586.454 272.27C555.417 257.733 524.317 243.167 482.32 236.001C433.399 227.655 393.138 236.864 352.745 246.103C313.457 255.09 274.044 264.105 226.416 257.022Z" fill="#1E698D"/>
<path d="M226.416 257.022C125.315 241.987 0 50.64 0 50.64V0H1340V148.098C1340 148.098 1328 143.321 1318.01 136.632C1293.31 120.107 1282.3 153.39 1270.2 189.955C1259.3 222.907 1247.52 258.526 1224.04 262.755C1179.07 270.855 1137.14 256.38 1094.33 241.6C1070.9 233.514 1047.22 225.336 1022.62 220.714C955.715 208.142 905.96 236.089 856.049 264.125C806.93 291.714 757.659 319.39 691.742 308.617C649.22 301.668 617.869 286.984 586.454 272.27C555.417 257.733 524.317 243.167 482.32 236.001C433.399 227.655 393.138 236.864 352.745 246.103C313.457 255.09 274.044 264.105 226.416 257.022Z" stroke="#1E698D"/>
</g>
</svg>
