<svg width="1340" height="242" viewBox="0 0 1340 242" fill="none" xmlns="http://www.w3.org/2000/svg">
<g id="Vector 2">
<path d="M226.416 199.998C125.315 188.298 0 39.4048 0 39.4048V0H1340V115.24C1340 115.24 1328 111.523 1318.01 106.318C1293.31 93.4597 1282.3 119.358 1270.2 147.81C1259.3 173.452 1247.52 201.168 1224.04 204.459C1179.07 210.761 1137.14 199.498 1094.33 187.997C1070.9 181.705 1047.22 175.342 1022.62 171.745C955.715 161.963 905.96 183.709 856.049 205.525C806.93 226.993 757.659 248.528 691.742 240.146C649.22 234.739 617.869 223.312 586.454 211.863C555.417 200.551 524.317 189.217 482.32 183.641C433.399 177.146 393.138 184.312 352.745 191.501C313.457 198.494 274.044 205.509 226.416 199.998Z" fill="#1E698D"/>
<path d="M226.416 199.998C125.315 188.298 0 39.4048 0 39.4048V0H1340V115.24C1340 115.24 1328 111.523 1318.01 106.318C1293.31 93.4597 1282.3 119.358 1270.2 147.81C1259.3 173.452 1247.52 201.168 1224.04 204.459C1179.07 210.761 1137.14 199.498 1094.33 187.997C1070.9 181.705 1047.22 175.342 1022.62 171.745C955.715 161.963 905.96 183.709 856.049 205.525C806.93 226.993 757.659 248.528 691.742 240.146C649.22 234.739 617.869 223.312 586.454 211.863C555.417 200.551 524.317 189.217 482.32 183.641C433.399 177.146 393.138 184.312 352.745 191.501C313.457 198.494 274.044 205.509 226.416 199.998Z" stroke="#1E698D"/>
</g>
</svg>
