<svg width="1234" height="430" viewBox="0 0 1234 430" fill="none" xmlns="http://www.w3.org/2000/svg">
<path fill-rule="evenodd" clip-rule="evenodd" d="M497.816 15.8834L499.126 11.2656C500.344 6.971 501.077 4.53446 501.324 3.95597C501.396 3.76023 501.533 3.59953 501.735 3.47387C501.942 3.33282 502.211 3.29274 502.543 3.35364C502.89 3.41891 503.45 3.52772 504.221 3.68008C504.318 3.57441 504.379 3.47539 504.406 3.38303C504.432 3.29067 504.429 3.18189 504.398 3.05668C502.982 2.42204 501.707 1.66955 500.573 0.799215C500.404 0.751189 500.267 0.795408 500.161 0.931872C499.907 2.473 499.027 5.89882 497.521 11.2093L496.42 15.0883C494.91 20.4142 493.858 23.7997 493.265 25.2448C493.334 25.4139 493.43 25.5159 493.553 25.5508C494.908 25.4032 496.386 25.4399 497.987 25.661L498.171 25.3639C498.193 25.287 498.19 25.1782 498.164 25.0376L496.547 24.4044C496.268 24.2753 496.073 24.1119 495.963 23.9144C495.863 23.7365 495.833 23.4619 495.872 23.0904C495.911 22.7189 496.559 20.3166 497.816 15.8834ZM502.985 17.0252L507.529 20.7088C509.127 21.9936 510.307 22.9935 511.068 23.7085C511.216 23.717 511.324 23.6564 511.394 23.5266C511.534 23.034 511.681 22.6348 511.834 22.329L505.376 17.3041L513.51 16.4182C513.541 16.0775 513.625 15.6609 513.765 15.1683C513.767 14.9859 513.706 14.8772 513.583 14.8423C512.559 15.0508 511.03 15.2823 508.996 15.5368L503.195 16.2864L502.985 17.0252ZM518.868 18.5614L524.859 8.78521C524.328 8.25217 524.016 7.91431 523.924 7.77163C523.755 7.7236 523.605 7.72279 523.476 7.76919C523.012 8.81842 521.082 12.1627 517.686 17.8022L511.672 27.5718C512.165 28.061 512.482 28.4087 512.623 28.615C512.777 28.6587 512.921 28.6496 513.055 28.5878C513.526 27.5738 515.463 24.2316 518.868 18.5614ZM526.541 26.1015L532.342 25.3519L532.552 24.6131L528.008 20.9295C526.41 19.6447 525.23 18.6448 524.469 17.9298C524.321 17.9212 524.213 17.9819 524.143 18.1117C524.003 18.6043 523.856 19.0034 523.703 19.3092L530.161 24.3341L522.026 25.2201C521.996 25.5608 521.911 25.9774 521.772 26.47C521.77 26.6524 521.831 26.7611 521.954 26.796C522.622 26.6695 524.151 26.4379 526.541 26.1015ZM538.649 22.4758L537.339 27.0936C536.099 31.4652 535.348 33.938 535.085 34.5121C535.026 34.6617 534.898 34.7916 534.7 34.9019C534.518 35.0165 534.259 35.0511 533.923 35.0056C533.582 34.9754 533.028 34.8765 532.26 34.7088C532.177 34.7683 532.118 34.8596 532.083 34.9827C532.048 35.1059 532.048 35.2223 532.084 35.3322C533.546 35.9799 534.816 36.7225 535.892 37.56C536.062 37.608 536.197 37.5715 536.298 37.4504C536.552 35.9093 537.434 32.4758 538.945 27.1499L540.045 23.2709C541.551 17.9604 542.601 14.5826 543.194 13.1375C543.145 12.9574 543.051 12.8477 542.913 12.8084C541.491 12.954 540.019 12.9271 538.495 12.7278L538.305 13.048C538.274 13.1557 538.279 13.2568 538.318 13.3512L539.941 13.9613C540.474 14.1955 540.699 14.6335 540.616 15.2754C540.575 15.5963 539.919 17.9965 538.649 22.4758ZM8.27366 36.3626L6.18495 32.0409C4.24245 28.0217 3.17145 25.7137 2.97194 25.1171C2.89584 24.9229 2.89152 24.7117 2.95899 24.4836C3.0195 24.2411 3.19406 24.0324 3.48265 23.8574C3.78565 23.6754 4.27617 23.385 4.9542 22.9862C4.95613 22.8431 4.9362 22.7283 4.89443 22.6419C4.85265 22.5555 4.77859 22.4758 4.67223 22.4028C3.1918 22.8695 1.73887 23.1541 0.313436 23.2566C0.154973 23.3332 0.0817419 23.4574 0.0937425 23.6293C0.927555 24.9501 2.54547 28.0955 4.94749 33.0654L6.702 36.6957C9.11098 41.6801 10.5739 44.9092 11.0908 46.3832C11.2543 46.4641 11.3937 46.4767 11.5089 46.421C12.4242 45.41 13.5534 44.4555 14.8965 43.5576L14.8367 43.2133C14.8019 43.1413 14.7278 43.0616 14.6145 42.9742L12.9856 43.5749C12.691 43.6639 12.4368 43.6712 12.2231 43.5968C12.0308 43.5298 11.8258 43.3446 11.608 43.0411C11.3903 42.7376 10.2788 40.5114 8.27366 36.3626ZM12.8957 33.7822L18.7386 33.5173C20.7866 33.416 22.3328 33.3796 23.3772 33.4079C23.4929 33.3164 23.5338 33.1989 23.5 33.0553C23.2772 32.5944 23.1215 32.1987 23.0329 31.8683L14.8678 32.4026L20.3594 26.3365C20.1555 26.0618 19.9422 25.694 19.7194 25.233C19.5996 25.0955 19.4821 25.0545 19.3669 25.1102C18.7402 25.9462 17.751 27.1351 16.3992 28.677L12.5615 33.0907L12.8957 33.7822ZM25.7875 24.3795L23.7709 13.0923C23.0202 13.0464 22.5628 13.0009 22.3988 12.9558C22.2403 13.0324 22.1281 13.131 22.0621 13.2518C22.4123 14.3442 23.1916 18.126 24.3998 24.597L26.3947 35.8946C27.0884 35.9326 27.5564 35.9818 27.7989 36.0423C27.943 35.9727 28.0445 35.8703 28.1036 35.7351C27.7817 34.6645 27.0096 30.8793 25.7875 24.3795ZM36.5321 24.9176L40.3698 20.5038L40.0357 19.8123L34.1927 20.0773C32.1447 20.1785 30.5985 20.215 29.5541 20.1867C29.4384 20.2781 29.3975 20.3956 29.4313 20.5392C29.6541 21.0002 29.8098 21.3959 29.8984 21.7263L38.0635 21.192L32.5719 27.2581C32.7758 27.5327 32.9891 27.9006 33.2119 28.3615C33.3317 28.4991 33.4492 28.5401 33.5645 28.4844C33.9796 27.9461 34.9688 26.7572 36.5321 24.9176ZM43.1733 14.1642L45.262 18.4859C47.2394 22.5772 48.3206 24.9246 48.5057 25.5282C48.5609 25.6792 48.5513 25.8615 48.4768 26.0752C48.4168 26.2819 48.246 26.48 47.9643 26.6694C47.6897 26.8733 47.2098 27.1674 46.5248 27.5518C46.502 27.6516 46.5185 27.7592 46.5742 27.8744C46.6299 27.9897 46.7074 28.0766 46.8068 28.1352C48.3305 27.6476 49.7727 27.3593 51.1336 27.2702C51.292 27.1936 51.3687 27.0766 51.3637 26.9191C50.5299 25.5983 48.9085 22.4458 46.4995 17.4614L44.745 13.8311C42.343 8.86114 40.8835 5.63917 40.3666 4.16523C40.2106 4.06295 40.0677 4.04313 39.9381 4.1058C38.9722 5.15906 37.8537 6.11725 36.5826 6.98035L36.6528 7.34626C36.7015 7.4471 36.7721 7.51961 36.8646 7.56378L38.483 6.9415C39.0365 6.76289 39.4956 6.9408 39.8606 7.47526C40.043 7.74249 41.1473 9.97214 43.1733 14.1642ZM1141.46 64.264V59.464C1141.46 55 1141.5 52.456 1141.58 51.832C1141.59 51.624 1141.68 51.432 1141.84 51.256C1142 51.064 1142.25 50.952 1142.58 50.92C1142.94 50.888 1143.5 50.84 1144.29 50.776C1144.35 50.648 1144.38 50.536 1144.38 50.44C1144.38 50.344 1144.35 50.24 1144.29 50.128C1142.75 49.904 1141.32 49.528 1139.99 49C1139.82 49 1139.7 49.08 1139.63 49.24C1139.81 50.792 1139.9 54.328 1139.9 59.848V63.88C1139.9 69.416 1139.81 72.96 1139.63 74.512C1139.74 74.656 1139.86 74.728 1139.99 74.728C1141.26 74.216 1142.69 73.848 1144.29 73.624L1144.38 73.288C1144.38 73.208 1144.35 73.104 1144.29 72.976L1142.56 72.808C1142.26 72.76 1142.02 72.656 1141.86 72.496C1141.72 72.352 1141.62 72.096 1141.55 71.728C1141.49 71.36 1141.46 68.872 1141.46 64.264ZM1146.74 63.952L1152.12 66.256C1154.01 67.056 1155.41 67.696 1156.34 68.176C1156.49 68.144 1156.57 68.056 1156.61 67.912C1156.61 67.4 1156.64 66.976 1156.7 66.64L1149.12 63.568L1156.7 60.496C1156.64 60.16 1156.61 59.736 1156.61 59.224C1156.56 59.048 1156.47 58.96 1156.34 58.96C1155.41 59.44 1154.01 60.08 1152.12 60.88L1146.74 63.184V63.952ZM1162.44 61.096L1165.54 50.056C1164.88 49.688 1164.49 49.448 1164.36 49.336C1164.18 49.336 1164.04 49.376 1163.93 49.456C1163.77 50.592 1162.82 54.336 1161.1 60.688L1157.98 71.728C1158.58 72.064 1158.98 72.312 1159.18 72.472C1159.34 72.472 1159.47 72.424 1159.58 72.328C1159.76 71.224 1160.71 67.48 1162.44 61.096ZM1171.88 66.256L1177.26 63.952V63.184L1171.88 60.88C1169.99 60.08 1168.58 59.44 1167.66 58.96C1167.51 58.992 1167.42 59.08 1167.39 59.224C1167.39 59.736 1167.36 60.16 1167.3 60.496L1174.88 63.568L1167.3 66.64C1167.36 66.976 1167.39 67.4 1167.39 67.912C1167.44 68.088 1167.53 68.176 1167.66 68.176C1168.26 67.872 1169.67 67.232 1171.88 66.256ZM1182.54 59.464V64.264C1182.54 68.808 1182.49 71.392 1182.39 72.016C1182.38 72.176 1182.29 72.336 1182.13 72.496C1181.99 72.656 1181.75 72.76 1181.41 72.808C1181.07 72.872 1180.51 72.928 1179.73 72.976C1179.67 73.056 1179.63 73.16 1179.63 73.288C1179.63 73.416 1179.67 73.528 1179.73 73.624C1181.31 73.848 1182.74 74.216 1184 74.728C1184.18 74.728 1184.3 74.656 1184.36 74.512C1184.19 72.96 1184.1 69.416 1184.1 63.88V59.848C1184.1 54.328 1184.19 50.792 1184.36 49.24C1184.27 49.08 1184.15 49 1184 49C1182.67 49.528 1181.25 49.904 1179.73 50.128L1179.63 50.488C1179.63 50.6 1179.67 50.696 1179.73 50.776L1181.46 50.92C1182.03 51 1182.37 51.36 1182.47 52C1182.51 52.32 1182.54 54.808 1182.54 59.464ZM711.768 353.38L709.649 357.687C707.615 361.822 706.546 364.068 706.441 364.427C706.336 364.785 706.316 365.061 706.382 365.254C706.455 365.468 706.617 365.664 706.869 365.841L708.345 366.754C708.346 366.897 708.329 367.005 708.294 367.077L708.059 367.336C706.524 366.831 705.077 366.529 703.717 366.43C703.602 366.374 703.526 366.256 703.489 366.078C704.332 364.763 705.975 361.621 708.419 356.654L710.198 353.036C712.635 348.083 714.117 344.871 714.644 343.4C714.772 343.285 714.915 343.266 715.073 343.344C716.031 344.404 717.15 345.373 718.43 346.252C718.438 346.381 718.42 346.488 718.378 346.575C718.336 346.661 718.258 346.747 718.144 346.834C717.412 346.545 716.881 346.337 716.551 346.211C716.235 346.091 715.963 346.082 715.735 346.184C715.514 346.271 715.35 346.405 715.244 346.584C714.897 347.109 713.738 349.374 711.768 353.38ZM718.336 364.18L714.529 359.739L714.868 359.05L720.708 359.356C722.756 359.471 724.302 359.518 725.346 359.497C725.461 359.554 725.501 359.671 725.467 359.85C725.241 360.31 725.082 360.704 724.991 361.034L716.83 360.443L722.279 366.547C722.074 366.821 721.858 367.187 721.632 367.646C721.54 367.761 721.422 367.802 721.279 367.767C720.658 366.926 719.677 365.731 718.336 364.18ZM737.527 355.566L729.876 364.106C725.508 369.071 723.001 372.011 722.356 372.924C722.213 372.96 722.07 372.944 721.926 372.873C721.824 372.645 721.575 372.245 721.178 371.676L728.85 363.146C733.204 358.209 735.704 355.266 736.349 354.318C736.485 354.295 736.632 354.323 736.789 354.401C736.855 354.558 737.101 354.946 737.527 355.566ZM741.91 373.208L736.069 372.902C733.657 372.804 732.111 372.756 731.431 372.761C731.317 372.704 731.276 372.587 731.311 372.407C731.537 371.948 731.695 371.553 731.786 371.224L739.948 371.814L734.498 365.71C734.704 365.437 734.92 365.071 735.146 364.611C735.238 364.496 735.356 364.456 735.499 364.491C736.12 365.331 737.101 366.527 738.442 368.078L742.249 372.519L741.91 373.208ZM746.513 375.819L748.631 371.512C750.686 367.334 751.763 365.091 751.861 364.783C752.057 364.166 751.915 363.695 751.433 363.369L749.946 362.477C749.924 362.377 749.938 362.277 749.987 362.176L750.232 361.896C751.695 362.365 753.139 362.657 754.564 362.769C754.693 362.832 754.765 362.957 754.781 363.143C753.938 364.458 752.298 367.592 749.862 372.545L748.082 376.163C745.639 381.131 744.153 384.35 743.626 385.82C743.505 385.921 743.366 385.933 743.208 385.855C742.3 384.838 741.184 383.879 739.862 382.979C739.847 382.865 739.867 382.75 739.924 382.635C739.98 382.52 740.055 382.441 740.148 382.397C740.872 382.7 741.4 382.897 741.729 382.988C742.052 383.094 742.313 383.106 742.513 383.026C742.727 382.953 742.877 382.848 742.962 382.712C743.324 382.194 744.507 379.897 746.513 375.819ZM37.6072 409.88L38.6559 405.196C39.6311 400.84 40.2259 398.366 40.4403 397.774C40.5014 397.575 40.6292 397.407 40.8238 397.27C41.0218 397.117 41.2883 397.062 41.6232 397.105C41.9737 397.15 42.5384 397.227 43.3175 397.336C43.4079 397.225 43.4636 397.123 43.4846 397.029C43.5055 396.936 43.497 396.827 43.4591 396.704C42.0091 396.15 40.6938 395.47 39.5133 394.665C39.3415 394.626 39.2069 394.678 39.1095 394.82C38.9422 396.373 38.2556 399.843 37.0496 405.23L36.1688 409.164C34.9594 414.567 34.0992 418.006 33.5884 419.482C33.6663 419.647 33.7676 419.743 33.8925 419.771C35.2379 419.548 36.7157 419.501 38.326 419.632L38.493 419.325C38.5105 419.247 38.502 419.139 38.4675 419L36.818 418.459C36.5318 418.345 36.3281 418.193 36.2069 418.002C36.0979 417.83 36.0523 417.558 36.0703 417.184C36.0882 416.811 36.6005 414.376 37.6072 409.88ZM42.832 410.73L47.5748 414.153C49.2425 415.346 50.4766 416.278 51.2773 416.949C51.4249 416.949 51.53 416.883 51.5926 416.749C51.7045 416.249 51.8284 415.843 51.9642 415.529L45.2345 410.874L53.3065 409.533C53.3174 409.191 53.3788 408.771 53.4907 408.271C53.4823 408.089 53.4156 407.984 53.2907 407.956C52.2803 408.221 50.7665 408.538 48.7493 408.906L42.9998 409.98L42.832 410.73ZM58.7756 411.372L64.2087 401.275C63.6489 400.773 63.3188 400.453 63.2184 400.316C63.0466 400.277 62.8974 400.285 62.7706 400.339C62.3663 401.412 60.6271 404.86 57.5532 410.681L52.0967 420.772C52.6166 421.233 52.9527 421.562 53.1051 421.761C53.2613 421.796 53.4045 421.778 53.5348 421.709C53.9477 420.67 55.6946 417.225 58.7756 411.372ZM66.8601 418.47L72.6096 417.396L72.7774 416.647L68.0346 413.224C66.367 412.031 65.1328 411.099 64.3321 410.428C64.1846 410.427 64.0795 410.494 64.0168 410.627C63.905 411.127 63.7811 411.534 63.6452 411.848L70.3749 416.502L62.303 417.843C62.292 418.185 62.2306 418.606 62.1188 419.106C62.1272 419.288 62.1938 419.393 62.3187 419.421C62.9784 419.257 64.4923 418.94 66.8601 418.47ZM78.7453 414.171L77.6967 418.855C76.704 423.289 76.0926 425.8 75.8626 426.388C75.812 426.541 75.6912 426.678 75.5001 426.799C75.3246 426.923 75.0677 426.973 74.7293 426.946C74.3875 426.935 73.8288 426.867 73.0532 426.743C72.9733 426.807 72.9193 426.901 72.8914 427.026C72.8634 427.151 72.8702 427.268 72.9117 427.375C74.4084 427.94 75.7177 428.61 76.8393 429.386C77.011 429.424 77.1439 429.38 77.2378 429.254C77.4051 427.701 78.0934 424.223 79.3029 418.821L80.1837 414.886C81.3897 409.5 82.248 406.068 82.7589 404.592C82.7001 404.415 82.6005 404.311 82.46 404.279C81.0487 404.504 79.577 404.56 78.0447 404.447L77.8724 404.777C77.848 404.886 77.8582 404.987 77.9032 405.079L79.558 405.597C80.1026 405.801 80.3518 406.226 80.3057 406.871C80.2826 407.194 79.7625 409.627 78.7453 414.171ZM459.776 269.304L460.354 274.069C460.909 278.644 461.24 281.11 461.348 281.468C461.456 281.825 461.59 282.067 461.751 282.192C461.929 282.332 462.171 282.407 462.479 282.418L464.215 282.377C464.294 282.496 464.338 282.596 464.348 282.675L464.293 283.02C462.731 283.435 461.354 283.973 460.161 284.634C460.034 284.649 459.906 284.592 459.777 284.462C459.765 282.901 459.426 279.372 458.759 273.876L458.274 269.873C457.609 264.394 457.096 260.894 456.735 259.374C456.779 259.208 456.888 259.114 457.063 259.093C458.445 259.457 459.912 259.658 461.464 259.695C461.541 259.799 461.585 259.898 461.597 259.993C461.608 260.089 461.59 260.204 461.542 260.339C460.771 260.496 460.213 260.613 459.868 260.687C459.538 260.759 459.305 260.9 459.169 261.11C459.032 261.304 458.967 261.505 458.977 261.713C458.972 262.342 459.239 264.873 459.776 269.304ZM471.177 274.763L465.563 273.123L465.47 272.361L470.53 269.427C472.308 268.405 473.628 267.6 474.492 267.012C474.619 266.997 474.717 267.073 474.786 267.242C474.847 267.75 474.93 268.168 475.034 268.493L467.875 272.456L475.774 274.593C475.751 274.934 475.77 275.359 475.832 275.867C475.817 276.014 475.741 276.112 475.601 276.161C474.622 275.796 473.148 275.33 471.177 274.763ZM482.548 257.066L480.803 268.398C479.857 274.944 479.362 278.775 479.321 279.892C479.221 280.001 479.092 280.065 478.933 280.084C478.723 279.949 478.296 279.751 477.652 279.49L479.42 268.155C480.371 261.641 480.857 257.811 480.879 256.664C480.981 256.571 481.119 256.514 481.294 256.492C481.434 256.588 481.852 256.779 482.548 257.066ZM495.855 269.449L490.796 272.384C488.721 273.619 487.401 274.424 486.834 274.799C486.707 274.814 486.609 274.737 486.54 274.568C486.478 274.06 486.395 273.643 486.291 273.317L493.45 269.354L485.552 267.218C485.575 266.877 485.556 266.452 485.494 265.943C485.508 265.797 485.585 265.699 485.724 265.65C486.703 266.014 488.178 266.48 490.149 267.047L495.763 268.687L495.855 269.449ZM501.137 269.123L500.559 264.358C499.999 259.736 499.675 257.269 499.589 256.957C499.417 256.333 499.04 256.016 498.459 256.006L496.726 256.071C496.653 256 496.609 255.908 496.596 255.797L496.648 255.428C498.13 255.023 499.498 254.478 500.753 253.794C500.896 253.777 501.025 253.842 501.139 253.989C501.151 255.551 501.49 259.072 502.154 264.551L502.64 268.554C503.306 274.05 503.82 277.557 504.182 279.077C504.136 279.228 504.025 279.314 503.851 279.335C502.534 278.979 501.076 278.785 499.477 278.753C499.402 278.666 499.356 278.558 499.341 278.431C499.326 278.304 499.345 278.197 499.399 278.11C500.171 277.968 500.72 277.845 501.046 277.741C501.374 277.653 501.6 277.521 501.723 277.344C501.863 277.166 501.931 276.997 501.928 276.836C501.948 276.205 501.684 273.634 501.137 269.123ZM1188.49 385.318L1189.72 380.679C1190.87 376.366 1191.56 373.918 1191.8 373.335C1191.87 373.138 1192 372.976 1192.2 372.847C1192.41 372.702 1192.68 372.658 1193.01 372.714C1193.36 372.773 1193.92 372.873 1194.69 373.013C1194.79 372.906 1194.85 372.806 1194.87 372.713C1194.9 372.62 1194.89 372.511 1194.86 372.387C1193.43 371.775 1192.15 371.043 1191 370.191C1190.83 370.146 1190.69 370.192 1190.59 370.33C1190.36 371.875 1189.53 375.315 1188.11 380.649L1187.08 384.545C1185.65 389.895 1184.65 393.297 1184.09 394.751C1184.16 394.919 1184.25 395.02 1184.38 395.053C1185.73 394.883 1187.21 394.896 1188.81 395.091L1188.99 394.791C1189.01 394.714 1189.01 394.605 1188.98 394.465L1187.35 393.858C1187.07 393.733 1186.87 393.573 1186.76 393.378C1186.66 393.201 1186.62 392.927 1186.66 392.555C1186.69 392.183 1187.3 389.771 1188.49 385.318ZM1193.67 386.376L1198.27 389.986C1199.89 391.245 1201.09 392.226 1201.86 392.928C1202.01 392.935 1202.12 392.872 1202.18 392.741C1202.32 392.247 1202.46 391.845 1202.6 391.537L1196.07 386.617L1204.19 385.6C1204.21 385.259 1204.29 384.841 1204.42 384.346C1204.42 384.164 1204.36 384.056 1204.23 384.023C1203.21 384.248 1201.69 384.504 1199.66 384.791L1193.87 385.634L1193.67 386.376ZM1209.58 387.656L1215.41 377.785C1214.87 377.261 1214.55 376.928 1214.46 376.787C1214.29 376.741 1214.14 376.743 1214.01 376.791C1213.56 377.848 1211.69 381.223 1208.38 386.916L1202.53 396.782C1203.03 397.263 1203.35 397.605 1203.5 397.809C1203.65 397.85 1203.79 397.839 1203.93 397.775C1204.38 396.754 1206.26 393.381 1209.58 387.656ZM1217.37 395.072L1223.16 394.229L1223.36 393.487L1218.75 389.877C1217.14 388.618 1215.94 387.637 1215.17 386.935C1215.02 386.929 1214.91 386.991 1214.84 387.122C1214.71 387.617 1214.57 388.018 1214.42 388.326L1220.96 393.247L1212.84 394.263C1212.82 394.605 1212.74 395.022 1212.61 395.517C1212.61 395.7 1212.67 395.807 1212.79 395.84C1213.46 395.703 1214.99 395.447 1217.37 395.072ZM1229.42 391.252L1228.18 395.89C1227.01 400.281 1226.3 402.766 1226.05 403.344C1225.99 403.494 1225.87 403.626 1225.67 403.74C1225.49 403.857 1225.23 403.896 1224.89 403.856C1224.55 403.831 1224 403.741 1223.23 403.586C1223.15 403.647 1223.09 403.739 1223.05 403.863C1223.03 403.939 1223.03 404.013 1223.03 404.084C1223.04 404.101 1223.04 404.117 1223.04 404.133C1223.05 404.16 1223.05 404.186 1223.06 404.212C1224.53 404.836 1225.82 405.558 1226.91 406.378C1227.08 406.424 1227.21 406.385 1227.31 406.262C1227.54 404.717 1228.36 401.27 1229.79 395.921L1230.83 392.024C1232.25 386.69 1233.24 383.296 1233.81 381.842C1233.76 381.662 1233.67 381.554 1233.53 381.517C1232.11 381.685 1230.63 381.682 1229.11 381.508L1228.92 381.831C1228.91 381.881 1228.9 381.931 1228.9 381.978C1228.91 382.032 1228.92 382.084 1228.94 382.134L1230.57 382.718C1231.11 382.943 1231.34 383.378 1231.27 384.021C1231.23 384.342 1230.62 386.753 1229.42 391.252ZM848.585 118.298L850.128 122.842C851.611 127.206 852.441 129.551 852.62 129.879C852.799 130.207 852.98 130.416 853.162 130.506C853.365 130.606 853.619 130.63 853.922 130.577L855.612 130.181C855.714 130.281 855.778 130.369 855.803 130.445L855.82 130.794C854.378 131.521 853.14 132.33 852.108 133.221C851.987 133.263 851.85 133.233 851.698 133.133C851.365 131.606 850.308 128.222 848.528 122.981L847.231 119.163C845.456 113.936 844.235 110.616 843.569 109.203C843.578 109.031 843.666 108.917 843.833 108.86C845.26 108.933 846.737 108.829 848.263 108.547C848.36 108.632 848.424 108.72 848.455 108.811C848.485 108.902 848.491 109.019 848.472 109.16C848.024 109.354 847.653 109.516 847.359 109.645C847.178 109.724 847.027 109.79 846.905 109.845C846.597 109.983 846.398 110.169 846.308 110.402C846.213 110.62 846.192 110.83 846.243 111.033C846.368 111.649 847.149 114.071 848.585 118.298ZM860.863 121.3L855.032 120.847L854.785 120.12L859.134 116.21C860.664 114.845 861.792 113.786 862.516 113.033C862.637 112.992 862.749 113.047 862.851 113.198C863.015 113.683 863.182 114.074 863.351 114.372L857.158 119.72L865.327 120.189C865.374 120.528 865.48 120.94 865.645 121.424C865.661 121.571 865.606 121.683 865.48 121.759C864.447 121.603 862.908 121.45 860.863 121.3ZM868.358 101.645L868.978 113.094C869.395 119.694 869.698 123.546 869.886 124.648C869.811 124.775 869.698 124.864 869.546 124.915C869.313 124.825 868.854 124.719 868.17 124.597L867.574 113.14C867.167 106.57 866.857 102.721 866.643 101.594C866.723 101.482 866.846 101.398 867.013 101.341C867.17 101.406 867.619 101.507 868.358 101.645ZM883.925 111.033L879.576 114.943C877.799 116.578 876.671 117.637 876.194 118.12C876.072 118.161 875.961 118.106 875.859 117.955C875.694 117.47 875.527 117.079 875.359 116.781L881.552 111.433L873.382 110.964C873.335 110.625 873.229 110.213 873.064 109.729C873.048 109.582 873.103 109.47 873.229 109.394C874.262 109.55 875.801 109.703 877.846 109.853L883.678 110.306L883.925 111.033ZM889.027 109.629L887.483 105.084C885.986 100.675 885.163 98.3274 885.015 98.0399C884.718 97.4647 884.284 97.2319 883.713 97.3415L882.03 97.7609C881.944 97.7057 881.883 97.6251 881.847 97.5191L881.822 97.1473C883.189 96.4463 884.416 95.6323 885.504 94.7052C885.64 94.6589 885.78 94.6961 885.922 94.8167C886.255 96.3428 887.309 99.7192 889.084 104.946L890.381 108.764C892.161 114.006 893.385 117.333 894.05 118.746C894.036 118.903 893.946 119.01 893.779 119.066C892.418 118.988 890.951 119.097 889.379 119.395C889.288 119.325 889.221 119.229 889.18 119.108C889.139 118.986 889.136 118.878 889.171 118.781C889.897 118.484 890.41 118.25 890.707 118.082C891.01 117.928 891.204 117.753 891.289 117.555C891.389 117.352 891.421 117.172 891.384 117.015C891.274 116.394 890.489 113.932 889.027 109.629Z" fill="#131925" fill-opacity="0.22"/>
</svg>
