<svg width="254" height="467" viewBox="0 0 254 467" fill="none" xmlns="http://www.w3.org/2000/svg">
<path d="M52.3027 23.936C7.50002 16 3.30273 15 3.30273 15V292.944V455C3.30273 455 20.7982 451 26.8027 448.936C85.0541 428.912 24.8028 375.936 84.8028 371.936C144.803 367.936 190.303 444.436 238.303 390.436C286.303 336.436 205.303 291.444 181.303 254.436C157.303 217.428 198.713 144.257 200.803 95.4437C202.457 56.8014 202.868 60.3401 189.803 23.9359C169.085 -33.7902 112.694 34.6331 52.3027 23.936Z" fill="#1E698D" fill-opacity="0.31"/>
<path d="M5.95028 37.5003C5.94979 37.5 5.95028 37.5 5.95028 37.5L5.95028 37.5003C5.96476 37.5077 6.82087 37.7319 45.2303 44.4749C93.7171 52.9871 138.847 -5.04007 155.455 44.4749C165.928 75.7008 165.599 72.6655 164.273 105.811C162.598 147.681 129.402 210.444 148.641 242.188C167.88 273.931 232.813 312.524 194.334 358.842C155.856 405.161 119.381 339.543 71.2834 342.974C23.1854 346.405 70.9265 390.397 24.7887 409.021C7.49998 416 5.95031 416.5 5.95031 416.5V275.218L5.95028 37.5003Z" fill="#1E698D" fill-opacity="0.31"/>
<path d="M7.37645 66C7.37645 66 15 68.3795 38.1426 71.882C76.3087 77.6581 111.468 31.0321 124.476 71.882C132.68 97.6433 144.838 98.6556 131.383 122.484C104.303 170.444 43.4796 188.255 58.5487 214.444C73.6178 240.632 185.067 293.022 154.928 331.235C124.79 369.448 96.2215 315.313 58.5487 318.144C20.8759 320.974 56.5 360.5 22.1316 372.633C9.74306 377.006 7.66114 378.121 7.37645 378.404L7.37645 378.5C7.37645 378.5 7.28626 378.494 7.37645 378.404L7.37645 262.245V66Z" fill="#1E698D" fill-opacity="0.31"/>
</svg>
